<svg version="1.1" viewBox="0 0 24 24" xmlns="http://www.w3.org/2000/svg">
	<path d="m12 2c5.88 0 10.6 5.08 9.94 11.1-0.466 4.41-3.93 8.08-8.31 8.78-0.553 0.088-1.1 0.131-1.63 0.131-1.6 0-3.11-0.381-4.45-1.05-0.186-0.093-0.386-0.142-0.587-0.142-0.138 0-0.276 0.022-0.409 0.071l-2.88 1.04c-0.147 0.053-0.292 0.077-0.433 0.077-0.819 0-1.48-0.828-1.17-1.68l1.04-2.88c0.12-0.327 0.085-0.683-0.07-0.994-0.893-1.79-1.27-3.88-0.919-6.08 0.7-4.38 4.37-7.85 8.78-8.31 0.367-0.039 0.73-0.058 1.09-0.058zm0 1.5c-0.308 0-0.62 0.017-0.93 0.049-3.73 0.395-6.87 3.36-7.46 7.06-0.287 1.79-0.016 3.58 0.78 5.17 0.346 0.693 0.396 1.47 0.14 2.18l-0.862 2.38 2.38-0.86c0.295-0.107 0.603-0.161 0.92-0.161 0.428 0 0.863 0.103 1.26 0.3 1.19 0.592 2.46 0.891 3.78 0.891 0.46 0 0.93-0.038 1.39-0.112 3.7-0.592 6.66-3.73 7.06-7.46 0.258-2.45-0.498-4.8-2.13-6.61-1.61-1.79-3.92-2.82-6.32-2.82zm0 4.75c0.414 0 0.75 0.336 0.75 0.75v2.25h2.25c0.414 0 0.75 0.336 0.75 0.75s-0.336 0.75-0.75 0.75h-2.25v2.25c0 0.414-0.336 0.75-0.75 0.75s-0.75-0.336-0.75-0.75v-2.25h-2.25c-0.414 0-0.75-0.336-0.75-0.75s0.336-0.75 0.75-0.75h2.25v-2.25c0-0.414 0.336-0.75 0.75-0.75z"/>
</svg>
