<svg version="1.1" viewBox="0 0 24 24" xmlns="http://www.w3.org/2000/svg">
	<path d="m12 1.9c5.9 0 11 5.3 9.9 11-0.47 4.4-3.9 8.1-8.3 8.8-0.55 0.088-1.1 0.13-1.6 0.13-1.6 0-3.1-0.38-4.4-1-0.19-0.093-0.39-0.14-0.59-0.14-0.14 0-0.28 0.022-0.41 0.071l-2.9 1c-0.15 0.053-0.29 0.077-0.43 0.077-0.82 0-1.5-0.83-1.2-1.7l0.99-2.9c0.12-0.33 0.085-0.68-0.07-0.99-0.89-1.8-1.3-3.9-0.91-6.1 0.7-4.4 4.4-7.8 8.8-8.3 0.37-0.039 0.73-0.058 1.1-0.058zm0.04 1.7c-0.31 0-0.62 0.017-0.92 0.049-3.7 0.4-6.9 3.4-7.5 7.1-0.29 1.8-0.016 3.6 0.78 5.2 0.35 0.69 0.4 1.5 0.14 2.2l-0.86 2.4 2.4-0.86c0.3-0.11 0.6-0.16 0.91-0.16 0.43 0 0.86 0.1 1.3 0.3 1.2 0.59 2.5 0.89 3.8 0.89 0.46 0 0.92-0.038 1.4-0.11 3.7-0.59 6.7-3.7 7.1-7.5 0.26-2.5-0.5-4.8-2.1-6.6s-4-2.9-6.4-2.9zm0 4.8c0.41 0 0.75 0.34 0.75 0.75v2.2h2.2c0.41 0 0.75 0.34 0.75 0.75s-0.34 0.75-0.75 0.75h-2.2v2.2c0 0.41-0.34 0.75-0.75 0.75s-0.75-0.34-0.75-0.75v-2.2h-2.2c-0.41 0-0.75-0.34-0.75-0.75s0.34-0.75 0.75-0.75h2.2v-2.2c0-0.41 0.34-0.75 0.75-0.75z"/>
</svg>
