<svg version="1.1" viewBox="0 0 20 20" xmlns="http://www.w3.org/2000/svg">
	<path d="m15 3.6-10 7.5c-0.7 0.38-0.7 0.38 0 1.1 0.35 0.75 0.35 0.75 0.7 0.38l11-7.9c0.35-0.38 0.35-0.38 0-1.1-0.35-0.75-0.35-0.75-1.1 0zm-4.6-2.6c-1.4 0-2.8 1.1-2.8 3v3.2l5.5-4.1c-0.36-1.3-1.5-2.1-2.7-2.1zm2.8 4-5.6 4.2v0.82c0 1.9 1.4 3 2.8 3 1.4 0 2.8-1.1 2.8-3zm2.1 3.5c-0.7 0-0.7 0-0.7 0.75v0.75c0 2.6-1.8 4.5-4.2 4.5-1.3 0-2.5-0.57-3.2-1.5l-1.2 0.82c0.84 1 2.1 1.8 3.7 2.2v2.2c0 0.75 0 0.75 0.7 0.75 0.7 0 0.7 0 0.7-0.75v-2.2c3.2-0.75 4.9-3 4.9-6v-0.75c0-0.75 0-0.75-0.7-0.75z"/>
</svg>
