<svg version="1.1" viewBox="0 0 24 24" xmlns="http://www.w3.org/2000/svg">
	<path d="m20.4 18.8v-10.8c0-0.29-0.236-0.527-0.524-0.527h-1.62c-1.02 0-1.96-0.605-2.38-1.54l-0.456-1.01c-0.084-0.188-0.271-0.309-0.476-0.309h-5.83c-0.206 0-0.392 0.121-0.477 0.309l-0.456 1.01c-0.423 0.938-1.36 1.54-2.38 1.54h-1.62c-0.288 0-0.524 0.236-0.524 0.527v10.8c0 0.29 0.236 0.526 0.524 0.526h15.7c0.288 0 0.524-0.237 0.524-0.526zm-0.524-12.9c1.16 0 2.1 0.942 2.1 2.11v10.8c0 1.16-0.94 2.1-2.1 2.1h-15.7c-1.16 0-2.1-0.943-2.1-2.1v-10.8c0-1.16 0.938-2.11 2.1-2.11h1.62c0.41 0 0.784-0.24 0.953-0.617l0.456-1.01c0.339-0.751 1.08-1.24 1.91-1.24h5.83c0.822 0 1.57 0.483 1.91 1.24l0.456 1.01c0.17 0.376 0.543 0.617 0.953 0.617z"/>
	<path d="m7.95 12.2c0.109-0.098 0.274-0.104 0.387-0.012l1.48 1.2c0.096 0.08 0.156 0.19 0.17 0.314 0.013 0.125-0.024 0.247-0.102 0.343-0.088 0.11-0.22 0.173-0.361 0.173-0.106 0-0.21-0.037-0.293-0.104l-0.687-0.56c0.04 0.541 0.204 1.07 0.484 1.54 0.64 1.09 1.82 1.77 3.09 1.77 0.636 0 1.26-0.171 1.81-0.497 0.212-0.124 0.513-0.048 0.637 0.165 0.13 0.224 0.055 0.51-0.164 0.641-0.692 0.41-1.48 0.626-2.28 0.626-1.6 0-3.08-0.855-3.89-2.23-0.328-0.557-0.53-1.17-0.598-1.81l-0.448 0.412c-0.18 0.167-0.489 0.152-0.655-0.03-0.014-0.014-0.047-0.06-0.058-0.078-0.111-0.19-0.075-0.435 0.086-0.583zm3.73-3.48c1.59 0 3.08 0.854 3.89 2.23 0.326 0.557 0.53 1.17 0.598 1.81l0.446-0.412c0.184-0.168 0.49-0.154 0.657 0.03 0.084 0.091 0.128 0.21 0.122 0.335-4e-3 0.126-0.06 0.24-0.15 0.325l-1.4 1.29c-0.056 0.052-0.128 0.079-0.2 0.079-0.066 0-0.133-0.022-0.186-0.068l-1.48-1.2c-0.042-0.034-0.08-0.077-0.108-0.128-0.097-0.166-0.081-0.379 0.04-0.529 0.155-0.194 0.46-0.226 0.654-0.07l0.688 0.56c-0.042-0.541-0.206-1.07-0.485-1.54-0.64-1.09-1.82-1.77-3.09-1.77-0.635 0-1.26 0.17-1.81 0.495-0.212 0.127-0.511 0.05-0.637-0.165-0.13-0.222-0.056-0.508 0.165-0.64 0.693-0.408 1.48-0.623 2.28-0.623z"/>
</svg>
