<svg version="1.1" viewBox="0 0 24 24" xmlns="http://www.w3.org/2000/svg">
	<path d="m11.5 6.31v11.4l-2.07-2.31c-0.475-0.557-1.17-0.877-1.9-0.876h-3.53c-0.276 0-0.5-0.224-0.5-0.5v-4c0-0.276 0.224-0.5 0.5-0.5h3.53c0.73 1e-3 1.42-0.32 1.9-0.875l2.07-2.31zm0.49-2.31c-0.294 0-0.573 0.133-0.759 0.362l-2.93 3.28c-0.19 0.228-0.472 0.36-0.768 0.36h-3.53c-1.1 0-2 0.896-2 2v4c0 1.1 0.895 2 2 2h3.53c0.296 0 0.578 0.132 0.768 0.36l2.93 3.28c0.186 0.23 0.465 0.362 0.76 0.362 0.267 3e-3 0.524-0.101 0.714-0.29 0.19-0.188 0.296-0.445 0.294-0.712v-14c2e-3 -0.267-0.105-0.524-0.294-0.712-0.19-0.189-0.447-0.293-0.715-0.29zm6.01 8c4e-3 -1.53-0.602-2.99-1.68-4.06l-1.06 1.06c0.797 0.798 1.24 1.88 1.24 3.01s-0.448 2.21-1.24 3l1.06 1.06c1.08-1.07 1.69-2.54 1.68-4.06zm1.14-6.89-1.06 1.06c3.22 3.22 3.22 8.44 0 11.7l1.06 1.06c3.8-3.81 3.8-9.98 0-13.8z"/>
</svg>
