<svg version="1.1" viewBox="0 0 24 24" xmlns="http://www.w3.org/2000/svg">
	<path d="m17 1c1 0.074 1.8 0.97 1.7 2v18c0.064 1-0.72 1.9-1.7 2h-10c-1-0.074-1.8-0.97-1.7-2v-18c-0.064-1 0.72-1.9 1.7-2zm0.25 18h-11v2.5c0 0.33 0.19 0.5 0.25 0.5h10c0.06 0 0.25-0.17 0.25-0.5zm-5.5 0.5c0.55 0 1 0.45 1 1s-0.45 1-1 1c-0.55 0-1-0.45-1-1s0.45-1 1-1zm5.2-16h-10c-0.06 0-0.25 0.17-0.25 0.5v14h11v-14c0-0.33-0.19-0.5-0.25-0.5zm-5.2 3.5c1.4 0 2.5 1.1 2.5 2.5v1c0.13-1e-3 0.26 0.05 0.35 0.14 0.094 0.094 0.15 0.22 0.14 0.36v3.5c1e-3 0.13-0.051 0.26-0.14 0.36-0.094 0.094-0.22 0.15-0.35 0.14h-5c-0.13 1e-3 -0.26-0.05-0.35-0.14-0.094-0.094-0.15-0.22-0.14-0.36v-3.5c-2e-3 -0.13 0.05-0.26 0.14-0.36 0.094-0.094 0.22-0.15 0.35-0.14v-0.94c0-1.3 0.96-2.4 2.2-2.6 0.086-8e-3 0.17-0.012 0.26-0.01zm0 0.98c-0.1 0-0.2 0.01-0.3 0.03-0.7 0.16-1.2 0.78-1.2 1.5v1h3v-1c0-0.4-0.16-0.78-0.44-1.1-0.28-0.28-0.66-0.44-1.1-0.44z"/>
</svg>
