<svg version="1.1" viewBox="0 0 24 24" xmlns="http://www.w3.org/2000/svg">
	<path d="m20 19 5.8e-4 -11c1.5e-5 -0.29-0.24-0.53-0.52-0.53h-1.6c-0.99 0-2-0.61-2.4-1.6l-0.46-1c-0.083-0.19-0.27-0.31-0.48-0.31h-5.8c-0.21 0-0.39 0.12-0.48 0.31l-0.46 1c-0.43 0.94-1.4 1.6-2.4 1.6h-1.6c-0.29 0-0.52 0.24-0.52 0.53v11c0 0.29 0.24 0.53 0.52 0.53l16 0.014c0.39-0.017 0.51-0.25 0.52-0.66zm-0.52-13c1.2 0 2.1 0.95 2.1 2.1v11c0 1.2-0.93 2.1-2.1 2.1h-16c-1.2 0-2.1-0.95-2.1-2.1v-11c0-1.2 0.93-2.1 2.1-2.1h1.6c0.41 0 0.78-0.24 0.95-0.62l0.46-1c0.34-0.76 1.1-1.2 1.9-1.2h5.8c0.82 0 1.6 0.49 1.9 1.2l0.46 1c0.17 0.38 0.54 0.62 0.95 0.62z"/>
	<path d="m8.4 12c0.1-0.086 0.25-0.089 0.36-0.011l1.4 1.1c0.087 0.07 0.15 0.17 0.15 0.28 0.012 0.11-0.022 0.21-0.091 0.3-0.08 0.098-0.2 0.15-0.33 0.15-0.1 0-0.19-0.033-0.26-0.089l-0.63-0.49c0.036 0.48 0.18 0.98 0.44 1.3 0.58 0.98 1.6 1.6 2.8 1.6 0.58 0 1.2-0.15 1.6-0.44 0.19-0.11 0.46-0.043 0.58 0.14 0.12 0.2 0.05 0.45-0.15 0.56-0.63 0.37-1.4 0.55-2.1 0.55-1.5 0-2.8-0.76-3.6-2-0.3-0.49-0.48-1.1-0.55-1.6l-0.41 0.37c-0.16 0.15-0.45 0.13-0.6-0.027-0.013-0.012-0.043-0.053-0.053-0.069-0.1-0.17-0.068-0.38 0.078-0.52zm3.4-3c1.5 0 2.8 0.76 3.6 2 0.3 0.49 0.48 1.1 0.55 1.6l0.41-0.37c0.16-0.15 0.45-0.13 0.6 0.027 0.076 0.08 0.12 0.19 0.11 0.29-0.0036 0.11-0.055 0.21-0.14 0.28l-1.3 1.2c-0.051 0.045-0.12 0.069-0.18 0.069-0.06 0-0.12-0.02-0.17-0.06l-1.4-1.1c-0.038-0.03-0.073-0.068-0.1-0.12-0.088-0.14-0.074-0.34 0.036-0.46 0.15-0.17 0.42-0.2 0.59-0.061l0.63 0.49c-0.038-0.48-0.19-0.98-0.45-1.3-0.58-0.98-1.6-1.6-2.8-1.6-0.58 0-1.2 0.15-1.6 0.44-0.19 0.12-0.46 0.045-0.58-0.14-0.12-0.2-0.051-0.45 0.15-0.56 0.63-0.36 1.4-0.55 2.1-0.55z"/>
</svg>
