<svg version="1.1" viewBox="0 0 24 24" xmlns="http://www.w3.org/2000/svg">
	<path d="m21 21-0.07-0.33c-0.36-1.7-0.85-4-2.4-5.5-0.38-0.37-0.92-0.66-1.6-0.88 0.45-0.83 0.77-1.8 0.77-2.8 0-1.5-0.33-2.7-0.98-3.6-0.56-0.8-1.6-1.8-3.6-1.8h-0.07c-0.52 6e-3 -0.97 0.077-1.4 0.19 0.058-0.28 0.055-0.55 8e-3 -0.81-0.075-0.4-0.26-0.74-0.53-1 0.054-0.31 0.082-0.63 0.036-0.96-0.19-1.3-1.6-2.4-3-2.4-1.1 0-2.5 0.68-3 2.6-0.34 1.5-0.17 2.6 0.13 3.2-0.11 0.47-0.25 1.1-0.39 1.8-0.52 2.6-0.47 3.5-0.36 4.1 0.13 0.61 0.84 3.6 2.4 5.6l0.47 3.2 0.22 1.5h14l-0.46-2.1zm-3.6 0.74c-0.13-0.58-0.22-1.3-0.78-2l-0.48 2h-6.8l-0.53-3.6c-1.2-1.4-2-3.8-2.3-5.3-0.25-1.2 0.9-5.9 0.9-5.9s-0.75-0.46-0.3-2.5c0.2-0.93 0.73-1.3 1.3-1.3 0.63 0 1.3 0.47 1.3 0.9 0.066 0.47-0.48 1.8-0.1 1.8 0.022 0 0.046-4e-3 0.074-0.013 0.05-0.017 0.1-0.025 0.15-0.025 0.4 0 0.69 0.54-0.28 0.93-0.3 0.12-0.49 0.14-0.57 0.14-0.023 0-0.034-2e-3 -0.034-2e-3s-0.66 5.2-0.45 5.7c0.29 0.78 1.2 2.8 2.1 3.5 0.16 0.17 0.38 0.25 0.59 0.25 0.2 0 0.4-0.07 0.56-0.22 0.35-0.32 0.38-0.87 0.077-1.2l-0.46-0.54c-0.41-0.56-0.93-1.6-0.93-2.6 0-2.1 0.76-3.7 2.8-3.7h-0.034 0.068-0.034c2.1 0.017 2.8 1.6 2.8 3.7 0 1.1-0.74 2.5-1.4 3 0 0-0.34 0.93 0.16 1 0 0 1.3 0.25 1.6 0.34 0.42 0.12 0.78 0.29 0.97 0.47 1.3 1.3 1.6 3.4 2 5h-2z"/>
</svg>
