<svg version="1.1" viewBox="0 0 24 24" xmlns="http://www.w3.org/2000/svg">
    <path d="M20.542 20.89l-.07-.33c-.358-1.674-.847-3.969-2.416-5.514-.375-.369-.925-.663-1.637-.875.449-.83.768-1.812.768-2.755 0-1.502-.328-2.73-.975-3.65-.563-.802-1.643-1.76-3.593-1.782h-.07c-.517.006-.973.077-1.374.193.058-.279.055-.554.008-.806-.075-.395-.262-.745-.526-1.023.054-.313.082-.632.036-.955C10.506 2.073 9.138 1 7.645 1c-1.147 0-2.526.684-2.956 2.604-.34 1.52-.173 2.55.134 3.235-.11.473-.253 1.12-.39 1.81-.522 2.637-.474 3.539-.358 4.073.133.611.84 3.587 2.401 5.635l.471 3.163.22 1.48H21l-.458-2.11zm-3.554.735c-.134-.576-.215-1.275-.78-2.041l-.477 2.04H8.919l-.534-3.647c-1.188-1.364-1.984-3.753-2.31-5.283-.247-1.161.901-5.864.901-5.864s-.75-.463-.3-2.515c.204-.93.731-1.253 1.256-1.253.633 0 1.264.469 1.324.905.066.468-.476 1.832-.1 1.832.022 0 .046-.004.074-.013.05-.017.101-.025.15-.025.404 0 .69.537-.281.934-.3.123-.494.137-.567.137-.023 0-.034-.002-.034-.002s-.657 5.2-.451 5.748c.294.784 1.159 2.836 2.07 3.52.163.166.378.25.593.25.199 0 .398-.07.558-.216.35-.318.385-.868.077-1.23l-.46-.538c-.411-.555-.932-1.581-.932-2.605 0-2.147.762-3.686 2.835-3.703h-.034.068-.034c2.057.017 2.835 1.556 2.835 3.703 0 1.123-.739 2.468-1.355 3.025 0 0-.345.929.162 1.045 0 0 1.285.254 1.591.343.417.12.783.287.967.472 1.268 1.272 1.646 3.45 1.972 4.981h-1.972z"/>
</svg>
