<svg version="1.1" viewBox="0 0 24 24" xmlns="http://www.w3.org/2000/svg" xmlns:xlink="http://www.w3.org/1999/xlink">			
	<path d="m19 5.3-1.1 0.9c3.2 3.2 3.2 8.4 0 12l1.1 1.1c3.8-3.8 3.8-10 0-14z"/>
	<path d="m18 12c4e-3 -1.5-0.6-3-1.7-4.1l-1.1 1.1c0.8 0.8 1.2 1.9 1.2 3 0 1.1-0.45 2.2-1.2 3l1.1 1.1c1.1-1.1 1.7-2.5 1.7-4.1z"/>
	<path d="m12 4c-0.29 0-0.57 0.13-0.77 0.36l-2.9 3.3c-0.19 0.23-0.47 0.36-0.78 0.36h-3.5c-1.1 0-2 0.9-2 2v4c0 1.1 0.91 2 2 2h3.5c0.3 0 0.58 0.13 0.78 0.36l2.9 3.3c0.19 0.23 0.46 0.36 0.77 0.36 0.27 3e-3 0.52-0.1 0.71-0.29 0.19-0.19 0.3-0.44 0.29-0.71v-14c2e-3 -0.27-0.1-0.52-0.29-0.71-0.19-0.19-0.44-0.33-0.71-0.33zm-0.49 2.3v0.36 11l-2.1-2.3c-0.48-0.56-1.2-0.88-1.9-0.88h-3.5c-0.28 0-0.5-0.22-0.5-0.5v-4c0-0.28 0.22-0.5 0.5-0.5h3.5c0.73 1e-3 1.4-0.32 1.9-0.88l2.1-2.3z"/>
</svg>
