<svg version="1.1" viewBox="0 0 20 20" xmlns="http://www.w3.org/2000/svg">
	<path d="m19 14c0.68-0.73 1.1-1.7 1.2-2.7 0.2-2.7-2.5-4.3-2.5-4.3-2-1.2-4.2-1.9-6.5-2.1-5.1-0.27-7.8 1.7-7.8 1.7-0.59 0.39-1.1 0.84-1.6 1.3-1.4 1.4-1.5 2.5-1.5 2.5-0.28 1.9 1.4 3.4 1.4 3.4l4.6-2.3 0.29-2.1c4.6-1.7 7.2 0.3 7.2 0.3l7.2e-4 2.3 5.2 1.8zm-0.44-1.5-3.5-1.2-0.0014-1.4v-0.63l-0.49-0.37c-0.13-0.096-3.2-2.3-8.3-0.47l-0.7 0.25-0.11 0.75-0.2 1.4-3.2 1.6c-0.3-0.43-0.6-1-0.51-1.7l0.01 0.0043-7.2e-4 -0.071c0.031-0.13 0.22-0.81 1.1-1.7 0.44-0.44 0.93-0.84 1.4-1.2l0.037-0.026c0.026-0.018 2.5-1.7 7-1.5 2.1 0.16 4.1 0.82 6 1.9 0.02 0.012 2 1.2 1.9 3-0.07 0.48-0.23 0.92-0.47 1.3z"/>
</svg>
