<svg version="1.1" viewBox="0 0 24 24" xmlns="http://www.w3.org/2000/svg">
	<path d="m16.7 5.62-10.2 7.5c-0.504 0.382-0.488 0.374 0 1.12 0.418 0.565 0.418 0.564 0.7 0.375l10.5-7.88c0.616-0.457 0.472-0.398 0.00887-1.08-0.377-0.559-0.348-0.579-1.06-0.0408zm-4.56-2.62c-1.4 0-2.8 1.12-2.8 3v3.18l5.5-4.06c-0.357-1.34-1.52-2.12-2.69-2.12zm2.8 3.98-5.61 4.2v0.825c0 1.88 1.4 3 2.8 3 1.4 0 2.8-1.12 2.8-3zm2.1 3.52c-0.7 0-0.7 0-0.7 0.75v0.75c0 2.62-1.75 4.5-4.21 4.5-1.35 0-2.48-0.57-3.15-1.5l-1.21 0.825c0.84 1.04 2.07 1.8 3.66 2.18v2.25c0 0.75 0 0.75 0.7 0.75 0.701 0 0.701 0 0.701-0.75v-2.25c3.15-0.75 4.91-3 4.91-6v-0.75c0-0.75 0-0.75-0.7-0.75z"/>
</svg>
