<svg version="1.1" viewBox="0 0 20 20" xmlns="http://www.w3.org/2000/svg" xmlns:xlink="http://www.w3.org/1999/xlink">
	<defs>
		<path id="ada" d="M11.217 8.735c.433 0 .783.356.783.794 0 3.184-2.409 5.798-5.478 6.066v1.655c0 .414-.336.75-.75.75h-.065c-.415 0-.75-.336-.75-.75v-1.724c-1.367-.243-2.574-.956-3.455-1.967l1.117-1.117c.814.971 2.027 1.587 3.381 1.587 2.45 0 4.435-2.014 4.435-4.5 0-.438.35-.794.782-.794zM9 6.06v3.646c0 1.657-1.343 3-3 3-.993 0-1.873-.483-2.42-1.226L9 6.06zM.783 8.735c.384 0 .704.282.77.653l-1.42 1.42C.045 10.396 0 9.968 0 9.529c0-.438.35-.794.783-.794zM6 0c1.337 0 2.47.875 2.857 2.083L3 7.939V3c0-1.657 1.343-3 3-3z"/>
	</defs>
	<g fill="none" fill-rule="evenodd">
		<g transform="translate(8.94e-5 -.00025)">
			<g transform="translate(4,1)">
				<mask id="adb" fill="#ffffff">
					<use width="100%" height="100%" xlink:href="#ada"/>
				</mask>
				<path d="m11.2 8.74c0.433 0 0.783 0.356 0.783 0.794 0 3.18-2.41 5.8-5.48 6.07v1.66c0 0.414-0.336 0.75-0.75 0.75h-0.065c-0.415 0-0.75-0.336-0.75-0.75v-1.72c-1.37-0.243-2.57-0.956-3.46-1.97l1.12-1.12c0.814 0.971 2.03 1.59 3.38 1.59 2.45 0 4.44-2.01 4.44-4.5 0-0.438 0.35-0.794 0.782-0.794zm-2.22-2.68v3.65c0 1.66-1.34 3-3 3-0.993 0-1.87-0.483-2.42-1.23zm-8.22 2.68c0.384 0 0.704 0.282 0.77 0.653l-1.42 1.42c-0.088-0.412-0.133-0.84-0.133-1.28 0-0.438 0.35-0.794 0.783-0.794zm5.22-8.74c1.34 0 2.47 0.875 2.86 2.08l-5.86 5.86v-4.94c0-1.66 1.34-3 3-3z" fill="#282828"/>
				<g fill="#fff" mask="url(#adb)">
					<path transform="translate(-6,-3)" d="m0 0h24v24h-24z"/>
				</g>
			</g>
			<path d="m16.8 0.214c0.285-0.285 0.747-0.285 1.03 0 0.26 0.259 0.283 0.664 0.07 0.95l-0.07 0.082-16.5 16.5c-0.285 0.285-0.747 0.285-1.03 0-0.26-0.259-0.283-0.664-0.07-0.95l0.07-0.082z" fill="#ff453b" fill-rule="nonzero"/>
		</g>
	</g>
</svg>
