<svg version="1.1" viewBox="0 0 20 20" xmlns="http://www.w3.org/2000/svg" xmlns:xlink="http://www.w3.org/1999/xlink">
	<defs>
		<path id="ada" d="M15.833 1.201c.107.245.167.515.167.799v2.02l2.85-1.89c.13-.09.27-.13.42-.13.38 0 .73.3.73.73v10.54c0 .43-.35.73-.73.73-.15 0-.29-.04-.42-.13L16 11.98V14c0 1.1-.9 2-2 2H4c-.841 0-1.621-.26-2.265-.702l1.09-1.091c.35.187.75.293 1.175.293h10c.28 0 .5-.22.5-.5V2.532l1.333-1.33zM12.968 0l-1.5 1.5H4C2.62 1.5 1.5 2.62 1.5 4v7.468L.095 12.873C.033 12.592 0 12.3 0 12V4c0-2.21 1.79-4 4-4h8.968zM18.5 4.16L16 5.82v4.36l2.5 1.66V4.16z"/>
	</defs>
	<g fill="none" fill-rule="evenodd">
		<g>
			<mask id="adb" fill="#fff">
				<use xlink:href="#ada"/>
			</mask>
			<use fill="#000" xlink:href="#ada"/>
			<g fill="#FFF" mask="url(#adb)">
				<path transform="translate(0 -2)" d="M0 0H20V20H0z"/>
			</g>
		</g>
		<path d="M16.754.214c.285-.285.747-.285 1.032 0 .26.259.283.664.07.95l-.07.082-16.54 16.54c-.285.285-.747.285-1.032 0-.26-.259-.283-.664-.07-.95l.07-.082L16.754.214z" fill="#FF453B" fill-rule="nonzero"/>
	</g>
</svg>
