<svg version="1.1" viewBox="0 0 20 20" xmlns="http://www.w3.org/2000/svg" xmlns:xlink="http://www.w3.org/1999/xlink">
	<defs>
		<path id="ada" d="M11.217 8.735c.433 0 .783.356.783.794 0 3.184-2.409 5.798-5.478 6.066v1.655c0 .414-.336.75-.75.75h-.065c-.415 0-.75-.336-.75-.75v-1.724C2.14 15.025 0 12.53 0 9.529c0-.438.35-.794.783-.794.432 0 .782.356.782.794 0 2.486 1.986 4.5 4.435 4.5 2.45 0 4.435-2.014 4.435-4.5 0-.438.35-.794.782-.794zM6 0c1.657 0 3 1.343 3 3v6.706c0 1.657-1.343 3-3 3s-3-1.343-3-3V3c0-1.657 1.343-3 3-3z"/>
	</defs>
	<g transform="translate(4,1)" fill="none" fill-rule="evenodd">
		<mask id="adb" fill="#ffffff">
			<use width="100%" height="100%" xlink:href="#ada"/>
		</mask>
		<use width="100%" height="100%" fill="#282828" xlink:href="#ada"/>
		<g fill="#fff" mask="url(#adb)">
			<path transform="translate(-6,-3)" d="m0 0h24v24h-24z"/>
		</g>
	</g>
</svg>
