<svg version="1.1" viewBox="0 0 20 20" xmlns="http://www.w3.org/2000/svg" xmlns:xlink="http://www.w3.org/1999/xlink">
	<defs>
		<path id="ada" d="M1.5 12c0 1.38 1.12 2.5 2.5 2.5h10c.28 0 .5-.22.5-.5V2c0-.28-.22-.5-.5-.5H4C2.62 1.5 1.5 2.62 1.5 4v8zM0 4c0-2.21 1.79-4 4-4h10c1.1 0 2 .9 2 2v2.02l2.85-1.89c.13-.09.27-.13.42-.13.38 0 .73.3.73.73v10.54c0 .43-.35.73-.73.73-.15 0-.29-.04-.42-.13L16 11.98V14c0 1.1-.9 2-2 2H4c-2.21 0-4-1.79-4-4V4zm16 6.18l2.5 1.66V4.16L16 5.82v4.36z"/>
	</defs>
	<g fill="none" fill-rule="evenodd">
		<g>
			<mask id="adb" fill="#fff">
				<use xlink:href="#ada"/>
			</mask>
			<use fill="#000" xlink:href="#ada"/>
			<g fill="#FFF" mask="url(#adb)">
				<path transform="translate(0 -2)" d="M0 0H20V20H0z"/>
			</g>
		</g>
	</g>
</svg>
