<svg version="1.1" viewBox="0 0 20 20" xmlns="http://www.w3.org/2000/svg">
	<path d="m15.8 3.2c0.107 0.245 0.167 0.515 0.167 0.799v2.02l2.85-1.89c0.13-0.09 0.27-0.13 0.42-0.13 0.38 0 0.73 0.3 0.73 0.73v10.5c0 0.43-0.35 0.73-0.73 0.73-0.15 0-0.29-0.04-0.42-0.13l-2.85-1.89v2.02c0 1.1-0.9 2-2 2h-10c-0.841 0-1.62-0.26-2.26-0.702l1.09-1.09c0.35 0.187 0.75 0.293 1.18 0.293h10c0.28 0 0.5-0.22 0.5-0.5v-11.5l1.33-1.33zm-2.86-1.2-1.5 1.5h-7.47c-1.38 0-2.5 1.12-2.5 2.5v7.47l-1.4 1.4c-0.062-0.281-0.095-0.573-0.095-0.873v-8c0-2.21 1.79-4 4-4zm5.53 4.16-2.5 1.66v4.36l2.5 1.66z"/>
	<path d="m15.8 0.202c0.269-0.269 0.705-0.269 0.975 0 0.246 0.245 0.267 0.627 0.0661 0.897l-0.0661 0.0774-15.6 15.6c-0.269 0.269-0.705 0.269-0.975 0-0.246-0.245-0.267-0.627-0.0661-0.897l0.0661-0.0774z" fill="#ff453b"/>
</svg>
