<svg version="1.1" viewBox="0 0 20 20" xmlns="http://www.w3.org/2000/svg">
	<path d="m5.6 5.8c-0.01-0.02-0.02-0.05-0.02-0.07-0.04-0.2-0.06-0.41-0.06-0.62 0-0.02-0.01-0.04-0.01-0.07 0-0.02 0.01-0.04 0.01-0.07 0-0.2 0.01-0.4 0.05-0.61 0.02-0.08 0.04-0.16 0.07-0.24 0-0.03 0.01-0.06 0.02-0.08 0.03-0.11 0.07-0.22 0.11-0.32 0.02-0.03 0.03-0.06 0.05-0.1 0.07-0.16 0.15-0.32 0.25-0.47 0.02-0.03 0.04-0.06 0.07-0.1 0.24-0.34 0.54-0.64 0.88-0.88 0.03-0.02 0.06-0.04 0.1-0.06 0.15-0.1 0.31-0.19 0.47-0.26 0.03-0.01 0.07-0.03 0.1-0.04 0.1-0.04 0.2-0.08 0.3-0.11 0.1-0.04 0.2-0.07 0.31-0.08 0.01-0.01 0.01-0.01 0.02-0.01s0.03-0.01 0.04 0c0.2-0.04 0.39-0.06 0.58-0.06 0.02 0 0.04-0.01 0.07-0.01 0.02 0 0.04 0.01 0.07 0.01 0.21 0 0.41 0.02 0.61 0.06 0.03 0.01 0.05 0.02 0.08 0.02 0.18 0.04 0.36 0.1 0.53 0.17 0.04 0.01 0.07 0.02 0.1 0.04 0.18 0.08 0.36 0.17 0.52 0.28 0.03 0.02 0.07 0.04 0.1 0.07 0.16 0.11 0.32 0.24 0.46 0.38 0.15 0.14 0.27 0.3 0.38 0.46 0.03 0.04 0.05 0.07 0.08 0.1 0.1 0.17 0.2 0.34 0.28 0.52l0.03 0.1c0.07 0.17 0.13 0.35 0.17 0.53 0.01 0.03 0.01 0.05 0.02 0.08 0.04 0.2 0.06 0.41 0.06 0.62 0 0.02 0.01 0.04 0.01 0.06 0 0.03-0.01 0.05-0.01 0.07 0 0.21-0.02 0.41-0.06 0.62-0.04 0.22-0.11 0.43-0.19 0.63-0.02 0.04-0.03 0.07-0.05 0.1-0.07 0.17-0.16 0.32-0.26 0.48-0.02 0.03-0.03 0.06-0.06 0.09-0.24 0.35-0.54 0.65-0.88 0.89-0.03 0.02-0.07 0.04-0.1 0.06-0.15 0.1-0.31 0.18-0.47 0.26-0.04 0.01-0.07 0.03-0.1 0.04-0.1 0.04-0.21 0.08-0.32 0.11-0.1 0.04-0.21 0.07-0.32 0.09-0.2 0.04-0.41 0.05-0.61 0.06h-0.14c-0.21-0.01-0.42-0.03-0.61-0.07-0.03 0-0.05-0.01-0.08-0.01-0.18-0.05-0.36-0.1-0.54-0.17-0.03-0.01-0.06-0.03-0.09-0.04-0.19-0.08-0.36-0.17-0.52-0.28-0.04-0.02-0.07-0.05-0.1-0.07-0.17-0.12-0.32-0.24-0.46-0.38-0.15-0.14-0.27-0.3-0.39-0.47-0.02-0.03-0.04-0.06-0.07-0.1-0.1-0.16-0.2-0.33-0.28-0.51-0.01-0.04-0.02-0.07-0.04-0.1-0.07-0.18-0.12-0.35-0.16-0.54m0.53 3.3c-2.7 1.1-4.6 3.8-4.6 6.9v1c0 0.56 0.45 1 1 1h8.2c0.41 0 0.75-0.33 0.75-0.75 0-0.41-0.34-0.75-0.75-0.75h-7.8v-0.29c0-3 2-5.6 5-6.1 2.5-0.42 4.8 0.73 6 2.6 0.22 0.32 0.64 0.44 1 0.3 0.41-0.16 0.57-0.65 0.33-1-0.82-1.3-2-2.3-3.4-2.9 1.5-1.1 2.4-2.9 2-5-0.34-2-1.9-3.6-3.8-4-3.2-0.68-6.1 1.8-6.1 4.9 0 1.7 0.84 3.2 2.1 4.1m12 8.2c0 0.42-0.34 0.75-0.75 0.75h-1.2v1.3c0 0.42-0.34 0.75-0.75 0.75-0.42 0-0.75-0.33-0.75-0.75v-1.3h-1.2c-0.42 0-0.75-0.33-0.75-0.75 0-0.41 0.33-0.75 0.75-0.75h1.2v-1.3c0-0.41 0.33-0.75 0.75-0.75 0.41 0 0.75 0.34 0.75 0.75v1.3h1.2c0.41 0 0.75 0.34 0.75 0.75"/>
</svg>
