<svg version="1.1" viewBox="0 0 20 20" xmlns="http://www.w3.org/2000/svg">
	<g transform="translate(4,1)">
		<path d="M11.217 8.735c.433 0 .783.356.783.794 0 3.184-2.409 5.798-5.478 6.066v1.655c0 .414-.336.75-.75.75h-.065c-.415 0-.75-.336-.75-.75v-1.724c-1.367-.243-2.574-.956-3.455-1.967l1.117-1.117c.814.971 2.027 1.587 3.381 1.587 2.45 0 4.435-2.014 4.435-4.5 0-.438.35-.794.782-.794zM9 6.06v3.646c0 1.657-1.343 3-3 3-.993 0-1.873-.483-2.42-1.226L9 6.06zM.783 8.735c.384 0 .704.282.77.653l-1.42 1.42C.045 10.396 0 9.968 0 9.529c0-.438.35-.794.783-.794zM6 0c1.337 0 2.47.875 2.857 2.083L3 7.939V3c0-1.657 1.343-3 3-3z"/>
	</g>
	<path d="m16.8 0.214c0.285-0.285 0.747-0.285 1.03 0 0.26 0.259 0.283 0.664 0.07 0.95l-0.07 0.082-16.5 16.5c-0.285 0.285-0.747 0.285-1.03 0-0.26-0.259-0.283-0.664-0.07-0.95l0.07-0.082z" fill="#ff453b"/>
</svg>
