<svg version="1.1" viewBox="0 0 20 20" xmlns="http://www.w3.org/2000/svg">
	<path d="m2.25 0.5c-0.957 0-1.75 0.793-1.75 1.75v4.5c0 0.957 0.793 1.75 1.75 1.75h4.5c0.957 0 1.75-0.793 1.75-1.75v-4.5c0-0.957-0.793-1.75-1.75-1.75zm0 1.5h4.5c0.151 0 0.25 0.0985 0.25 0.25v4.5c0 0.151-0.0985 0.25-0.25 0.25h-4.5c-0.151 0-0.25-0.0985-0.25-0.25v-4.5c0-0.151 0.0985-0.25 0.25-0.25z"/>
	<path d="m13.2 0.5c-0.957 0-1.75 0.793-1.75 1.75v4.5c0 0.957 0.793 1.75 1.75 1.75h4.5c0.957 0 1.75-0.793 1.75-1.75v-4.5c0-0.957-0.793-1.75-1.75-1.75zm0 1.5h4.5c0.151 0 0.25 0.0985 0.25 0.25v4.5c0 0.151-0.0985 0.25-0.25 0.25h-4.5c-0.151 0-0.25-0.0985-0.25-0.25v-4.5c0-0.151 0.0985-0.25 0.25-0.25z"/>
	<path d="m13.2 11.4c-0.957 0-1.75 0.793-1.75 1.75v4.5c0 0.957 0.793 1.75 1.75 1.75h4.5c0.957 0 1.75-0.793 1.75-1.75v-4.5c0-0.957-0.793-1.75-1.75-1.75zm0 1.5h4.5c0.151 0 0.25 0.0985 0.25 0.25v4.5c0 0.151-0.0985 0.25-0.25 0.25h-4.5c-0.151 0-0.25-0.0985-0.25-0.25v-4.5c0-0.151 0.0985-0.25 0.25-0.25z"/>
	<path d="m2.25 11.4c-0.957 0-1.75 0.793-1.75 1.75v4.5c0 0.957 0.793 1.75 1.75 1.75h4.5c0.957 0 1.75-0.793 1.75-1.75v-4.5c0-0.957-0.793-1.75-1.75-1.75zm0 1.5h4.5c0.151 0 0.25 0.0985 0.25 0.25v4.5c0 0.151-0.0985 0.25-0.25 0.25h-4.5c-0.151 0-0.25-0.0985-0.25-0.25v-4.5c0-0.151 0.0985-0.25 0.25-0.25z"/>
</svg>
