<svg version="1.1" viewBox="0 0 20 20" xmlns="http://www.w3.org/2000/svg">
	<path d="m10.8 1c0.541 0 0.992 0.383 1.1 0.9l0.391 1.74c0.247 0.0882 0.488 0.191 0.681 0.288l1.47-0.971c0.178-0.12 0.395-0.192 0.627-0.192 0.309 0 0.589 0.125 0.792 0.328l1.07 1.09c0.203 0.203 0.328 0.483 0.328 0.792 0 0.233-0.0701 0.448-0.189 0.624l-0.991 1.42c0.115 0.234 0.217 0.473 0.32 0.768l1.73 0.344c0.521 0.106 0.907 0.561 0.908 1.1v1.53c-1e-3 0.539-0.384 0.99-0.9 1.1l-1.74 0.391c-0.0881 0.247-0.19 0.487-0.288 0.681l0.971 1.46c0.12 0.179 0.191 0.395 0.191 0.628 0 0.309-0.125 0.59-0.328 0.792l-1.08 1.08c-0.203 0.203-0.483 0.328-0.792 0.328-0.232 0-0.449-0.0702-0.624-0.19l-1.42-0.991c-0.233 0.115-0.474 0.218-0.768 0.321l-0.345 1.73c-0.105 0.513-0.559 0.899-1.1 0.901h-1.54c-0.545 0-1-0.387-1.11-0.908l-0.391-1.74c-0.247-0.0882-0.488-0.191-0.681-0.288l-1.46 0.971c-0.179 0.12-0.395 0.192-0.627 0.192-0.31 0-0.59-0.125-0.792-0.328l-1.08-1.08c-0.202-0.203-0.328-0.483-0.328-0.792 0-0.233 0.0701-0.448 0.19-0.624l0.998-1.42c-0.115-0.234-0.217-0.473-0.32-0.768l-1.73-0.345c-0.515-0.102-0.901-0.556-0.901-1.1v-1.53c0-0.541 0.383-0.995 0.899-1.1l1.74-0.391c0.0881-0.247 0.19-0.487 0.287-0.681l-0.971-1.47c-0.12-0.178-0.19-0.394-0.19-0.627 0-0.309 0.125-0.59 0.327-0.792l1.08-1.08c0.203-0.204 0.486-0.329 0.796-0.329 0.234 0 0.451 0.0702 0.627 0.191l1.42 0.991c0.232-0.115 0.473-0.218 0.768-0.321l0.352-1.72c0.105-0.511 0.555-0.895 1.1-0.901zm0.0521 0.818h-1.64l-0.337 1.8c-0.0821 0.401-0.371 0.729-0.801 0.88-0.213 0.0762-0.421 0.164-0.581 0.246-0.155 0.0752-0.328 0.117-0.512 0.117-0.242 0-0.467-0.0732-0.649-0.196l-1.52-1.01-1.13 1.13 1.01 1.49c0.126 0.186 0.2 0.41 0.2 0.652 0 0.183-0.0431 0.358-0.1 0.471-0.1 0.202-0.188 0.41-0.28 0.672-0.135 0.381-0.463 0.67-0.872 0.753l-1.79 0.361v1.63l1.8 0.346c0.403 0.0822 0.73 0.371 0.881 0.8 0.0761 0.215 0.164 0.422 0.245 0.582 0.0761 0.155 0.118 0.329 0.118 0.512 0 0.242-0.0731 0.466-0.196 0.649l-1.01 1.52 1.13 1.12 1.49-1.01c0.186-0.125 0.411-0.199 0.653-0.199 0.183 0 0.358 0.0421 0.471 0.0983 0.2 0.1 0.41 0.189 0.673 0.281 0.38 0.135 0.669 0.462 0.752 0.872l0.361 1.79h1.64l0.344-1.8c0.0831-0.401 0.372-0.729 0.801-0.88 0.213-0.0762 0.422-0.164 0.581-0.246 0.155-0.0752 0.329-0.117 0.513-0.117 0.241 0 0.467 0.0732 0.649 0.196l1.52 1.01 1.12-1.12-1.01-1.52c-0.127-0.188-0.202-0.413-0.202-0.656 0-0.186 0.0431-0.361 0.102-0.475 0.0991-0.202 0.187-0.409 0.279-0.673 0.136-0.38 0.463-0.669 0.873-0.752v0.0241l1.79-0.361v-1.63l-1.8-0.338c-0.403-0.0822-0.729-0.371-0.881-0.8-0.0761-0.214-0.164-0.421-0.245-0.582-0.0751-0.155-0.117-0.329-0.117-0.511 0-0.243 0.0731-0.467 0.196-0.65l1.04-1.53-1.12-1.12-1.52 1.01c-0.186 0.127-0.413 0.201-0.656 0.201-0.185 0-0.361-0.0421-0.476-0.1-0.201-0.1-0.41-0.189-0.672-0.281-0.381-0.135-0.669-0.462-0.753-0.872zm-0.818 4.91c1.81 0 3.27 1.46 3.27 3.27 0 1.81-1.47 3.27-3.27 3.27-1.81 0-3.27-1.46-3.27-3.27 0-1.81 1.47-3.27 3.27-3.27zm0 0.817c-1.36 0-2.45 1.1-2.45 2.45 0 1.36 1.1 2.45 2.45 2.45 1.36 0 2.46-1.1 2.46-2.45 0-1.36-1.1-2.45-2.45-2.45z"/>
</svg>
